<svg xmlns="http://www.w3.org/2000/svg" xmlns:xlink="http://www.w3.org/1999/xlink" width="1000" zoomAndPan="magnify" viewBox="0 0 750 74.999997" height="100" preserveAspectRatio="xMidYMid meet" version="1.0"><path fill="#cbe1f2" d="M 758.476562 88.347656 C 758.476562 84.054688 765.015625 86.292969 765.199219 83.867188 C 765.199219 81.816406 763.519531 80.136719 762.210938 78.640625 C 754.183594 70.054688 741.671875 67.441406 731.773438 61.839844 C 726.355469 58.667969 728.410156 54.933594 724.300781 51.203125 C 715.152344 44.480469 704.878906 40 695.167969 34.589844 C 685.832031 28.988281 682.46875 24.882812 670.890625 25.816406 C 664.355469 25.816406 658.753906 20.214844 652.03125 20.773438 C 648.480469 20.773438 645.679688 22.269531 644.558594 21.148438 C 643.8125 20.214844 642.878906 17.226562 641.386719 16.855469 C 638.398438 16.480469 637.089844 19.839844 633.914062 20.773438 C 630.367188 22.269531 622.710938 21.148438 620.84375 20.773438 C 620.71875 20.773438 620.53125 20.648438 620.28125 20.402344 C 620.65625 19.839844 627.378906 20.402344 629.621094 18.722656 C 633.542969 15.734375 627.003906 12.933594 624.019531 12.5625 C 591.335938 6.960938 552.679688 -1.8125 518.878906 3.601562 C 517.382812 3.601562 513.835938 4.535156 512.902344 3.976562 C 511.59375 3.601562 512.527344 2.480469 510.472656 2.480469 C 505.992188 3.042969 501.507812 3.042969 497.027344 2.480469 C 486.941406 0.613281 482.835938 0.242188 474.058594 5.46875 C 473.3125 5.71875 472.625 5.71875 472.003906 5.46875 C 469.761719 2.480469 469.761719 -0.320312 463.972656 2.109375 C 460.984375 3.226562 458.183594 5.09375 455.007812 6.027344 C 449.96875 7.519531 445.859375 6.589844 441.5625 8.082031 C 437.082031 9.949219 430.917969 13.121094 426.0625 10.882812 C 424.941406 10.320312 424.570312 9.015625 423.449219 9.015625 C 421.582031 9.386719 418.59375 10.695312 416.164062 10.507812 C 413.175781 10.507812 410.9375 8.828125 407.949219 8.640625 C 399.730469 9.015625 391.886719 9.015625 385.164062 13.496094 C 382.179688 15.054688 379.035156 16.171875 375.734375 16.835938 C 372.429688 17.503906 369.101562 17.695312 365.742188 17.414062 C 362.195312 16.667969 358.273438 13.496094 354.351562 14.429688 C 350.429688 14.988281 347.066406 19.09375 343.332031 21.519531 C 335.488281 26.5625 333.0625 22.828125 328.019531 23.949219 C 325.21875 24.507812 322.601562 26.75 319.800781 27.679688 C 315.132812 29.363281 310.839844 25.441406 305.609375 26 C 300.753906 26.5625 295.523438 30.480469 289.921875 31.789062 C 283.945312 33.28125 278.34375 30.667969 272.554688 30.855469 C 265.644531 30.855469 258.921875 34.027344 252.011719 34.589844 C 249.585938 34.960938 246.78125 33.46875 244.355469 32.722656 C 240.433594 31.976562 238.378906 34.027344 233.710938 34.773438 C 228.109375 35.707031 221.570312 33.65625 216.902344 36.453125 C 211.488281 39.253906 207.003906 44.855469 197.855469 38.882812 C 195.988281 37.761719 194.304688 38.507812 190.570312 38.507812 C 187.832031 38.382812 185.15625 38.382812 182.539062 38.507812 C 178.804688 38.882812 176.566406 43.921875 171.894531 43.734375 C 167.039062 44.292969 163.492188 39.628906 160.503906 38.695312 C 156.957031 37.203125 149.300781 43.363281 143.136719 43.363281 C 140.148438 43.363281 142.578125 40 139.402344 39.066406 C 135.105469 37.761719 122.21875 40 117.925781 40.933594 C 113.628906 41.867188 109.148438 43.363281 105.972656 42.800781 C 103.359375 42.242188 101.304688 39.816406 98.691406 39.441406 C 91.59375 38.507812 85.617188 44.292969 79.082031 45.976562 C 76.964844 46.222656 75.160156 46.035156 73.664062 45.414062 C 71.613281 44.292969 67.503906 45.042969 64.140625 45.976562 C 56.859375 47.46875 48.640625 46.722656 42.292969 50.828125 C 38.917969 53.25 35.308594 55.242188 31.460938 56.800781 C 25.484375 59.226562 18.761719 63.335938 12.597656 64.640625 C 9.609375 64.640625 11.292969 60.535156 8.863281 62.027344 C 3.820312 64.828125 -4.394531 72.480469 -6.261719 74.160156 C -8.878906 76.027344 -11.304688 74.160156 -12.988281 77.519531 C -14.667969 80.882812 -15.414062 84.988281 -17.84375 87.414062 C -21.390625 90.402344 -25.871094 92.082031 -29.046875 96.1875 C -63.96875 135.949219 -48.28125 149.203125 -53.699219 161.335938 C -56.5 167.867188 -63.78125 165.441406 -61.914062 179.628906 C -58.738281 203.335938 -50.710938 225.546875 -47.910156 230.214844 C -44.546875 236.1875 -36.890625 238.988281 -33.714844 245.148438 C -32.222656 247.949219 -32.78125 250.75 -31.289062 252.800781 C -30.539062 253.363281 -28.671875 250.5625 -27.554688 250.75 C -25.871094 251.496094 -25.3125 256.347656 -24.191406 258.773438 C -23.445312 261.574219 -19.523438 259.519531 -18.402344 261.949219 C -17.46875 263.628906 -17.28125 268.109375 -15.039062 270.722656 C -7.011719 280.800781 49.949219 294.800781 71.050781 302.269531 C 79.269531 305.066406 79.453125 300.402344 86.738281 301.148438 C 113.070312 305.441406 114.9375 305.066406 117.550781 307.121094 C 119.171875 308.613281 120.726562 310.109375 122.21875 311.601562 C 123.714844 312.90625 126.515625 313.28125 127.449219 312.535156 C 128.945312 311.601562 127.449219 308.988281 129.316406 308.429688 C 132.304688 308.242188 135.105469 309.921875 138.28125 309.921875 C 141.644531 310.292969 145.191406 308.613281 149.671875 308.800781 C 151.539062 308.988281 154.902344 308.800781 155.648438 310.855469 C 155.089844 313.28125 144.257812 311.976562 141.828125 313.839844 C 137.90625 315.707031 138.28125 317.761719 140.335938 318.695312 C 142.761719 320 147.617188 318.695312 151.539062 318.695312 C 156.210938 318.320312 162.371094 320.75 166.105469 317.015625 C 167.972656 314.773438 168.90625 311.042969 169.65625 311.226562 C 170.589844 312.160156 170.402344 314.214844 170.777344 315.707031 C 170.960938 317.949219 173.390625 320.1875 175.445312 320 C 178.617188 319.253906 177.5 314.773438 179.738281 312.90625 C 181.792969 310.855469 186.835938 309.363281 188.703125 311.601562 C 189.824219 313.65625 186.835938 316.828125 190.199219 317.761719 C 213.21875 319.90625 236.128906 319.035156 258.921875 315.148438 C 257.800781 314.773438 254.8125 314.402344 255.746094 312.535156 C 258.546875 308.613281 263.03125 303.203125 268.632812 302.640625 C 275.542969 301.894531 282.824219 300.402344 289.734375 300.402344 C 294.589844 301.148438 287.121094 304.695312 286.1875 305.816406 C 285.253906 306.933594 291.976562 303.574219 294.21875 303.386719 C 299.632812 303.761719 288.800781 311.789062 305.609375 311.789062 C 311.957031 311.601562 318.867188 311.789062 324.097656 308.054688 C 327.085938 305.816406 328.019531 301.519531 330.445312 299.09375 C 332.128906 297.226562 333.808594 296.667969 334.742188 298.90625 C 336.234375 305.628906 334.367188 309.363281 343.707031 308.800781 C 353.042969 308.242188 363.128906 308.429688 372.464844 305.816406 C 376.761719 304.695312 381.242188 301.519531 385.726562 302.828125 L 386.472656 303.015625 C 390.582031 303.761719 393.382812 296.480469 398.238281 297.976562 C 400.476562 298.535156 402.34375 301.335938 403.09375 303.386719 C 405.707031 309.921875 407.574219 308.800781 422.886719 306.5625 C 429.238281 305.628906 430.542969 296.292969 438.386719 300.960938 C 439.507812 301.894531 439.695312 302.269531 440.441406 303.386719 C 442.871094 311.042969 447.164062 308.800781 453.515625 308.054688 C 459.304688 307.496094 462.480469 311.414062 468.082031 311.414062 C 474.429688 311.042969 481.339844 309.546875 488.0625 309.921875 C 495.90625 309.921875 502.628906 312.347656 509.726562 312.535156 C 517.195312 312.722656 524.292969 310.480469 532.136719 310.109375 C 579.570312 310.109375 587.414062 307.121094 633.355469 305.066406 C 644 304.507812 644.558594 300.589844 650.722656 297.976562 C 658.191406 295.921875 649.789062 302.082031 659.6875 301.335938 C 666.222656 300.402344 673.878906 297.976562 679.484375 294.429688 C 681.476562 292.3125 683.839844 290.632812 686.578125 289.386719 C 689.753906 288.269531 694.050781 289.203125 696.476562 288.640625 C 699.839844 288.269531 701.519531 285.28125 704.320312 283.414062 L 707.496094 282.109375 C 713.84375 280.242188 719.074219 276.695312 725.050781 273.894531 C 732.144531 269.976562 737.375 262.507812 743.910156 257.839844 L 744.285156 257.46875 C 745.21875 256.347656 744.097656 257.28125 748.207031 252.429688 C 784.996094 211.175781 783.316406 137.066406 758.851562 89.09375 Z M 296.457031 36.453125 C 288.988281 38.695312 281.394531 40 273.675781 40.375 C 272.367188 40.375 270.6875 40.75 269.753906 40 C 268.445312 38.882812 270.125 34.960938 272.179688 34.214844 C 278.34375 31.789062 287.121094 36.640625 294.589844 34.960938 C 298.324219 34.214844 298.699219 35.335938 296.273438 36.269531 Z M 457.996094 12.1875 C 456.128906 12.4375 454.261719 12.4375 452.394531 12.1875 C 452.953125 10.882812 456.503906 9.015625 458.742188 10.320312 L 458.929688 10.320312 C 459.429688 11.566406 459.054688 12.125 457.808594 12 Z M 585.734375 18.160156 C 585.171875 18.160156 583.867188 18.160156 583.492188 17.601562 L 583.867188 16.855469 C 585.609375 15.363281 587.539062 13.992188 589.65625 12.75 C 591.898438 11.441406 595.820312 9.949219 598.058594 12 C 597.125 14.988281 593.203125 15.921875 591.898438 17.601562 C 589.84375 19.46875 589.09375 18.535156 585.734375 18.160156 M 614.492188 22.082031 C 608.332031 22.269531 601.792969 20.773438 595.445312 19.65625 C 593.390625 18.90625 597.3125 17.976562 598.058594 17.601562 C 599.925781 16.855469 602.355469 15.546875 604.222656 16.667969 C 607.582031 18.90625 616.359375 19.839844 614.679688 21.894531 Z M 755.488281 82.1875 C 754.867188 83.183594 754.058594 83.496094 753.0625 83.121094 L 742.417969 75.839844 C 741.855469 75.09375 743.722656 74.535156 745.777344 74.722656 C 748.578125 75.09375 756.421875 78.453125 755.304688 82.1875 Z M 755.488281 82.1875 " fill-opacity="1" fill-rule="nonzero"/></svg>