<svg xmlns="http://www.w3.org/2000/svg" xmlns:xlink="http://www.w3.org/1999/xlink" width="1000" zoomAndPan="magnify" viewBox="0 0 750 74.999997" height="100" preserveAspectRatio="xMidYMid meet" version="1.0"><path fill="#bbe2ff" d="M 758.109375 88.355469 C 758.109375 84.0625 764.644531 86.300781 764.832031 83.875 C 764.832031 81.820312 763.148438 80.140625 761.84375 78.648438 C 753.816406 70.0625 741.308594 67.445312 731.414062 61.847656 C 726 58.671875 728.054688 54.941406 723.949219 51.207031 C 714.800781 44.484375 704.53125 40.003906 694.824219 34.589844 C 685.492188 28.992188 682.132812 24.882812 670.558594 25.816406 C 664.023438 25.816406 658.421875 20.21875 651.703125 20.777344 C 648.15625 20.777344 645.355469 22.269531 644.234375 21.152344 C 643.488281 20.21875 642.554688 17.230469 641.0625 16.855469 C 638.074219 16.484375 636.769531 19.84375 633.59375 20.777344 C 630.046875 22.269531 622.394531 21.152344 620.527344 20.777344 C 620.402344 20.777344 620.214844 20.652344 619.964844 20.402344 C 620.339844 19.84375 627.058594 20.402344 629.300781 18.722656 C 633.222656 15.738281 626.6875 12.9375 623.699219 12.5625 C 591.03125 6.964844 552.390625 -1.8125 518.601562 3.601562 C 517.105469 3.601562 513.558594 4.535156 512.625 3.976562 C 511.320312 3.601562 512.253906 2.484375 510.199219 2.484375 C 505.71875 3.042969 501.238281 3.042969 496.757812 2.484375 C 486.675781 0.617188 482.570312 0.242188 473.796875 5.46875 C 473.050781 5.71875 472.367188 5.71875 471.742188 5.46875 C 469.503906 2.484375 469.503906 -0.316406 463.714844 2.109375 C 460.730469 3.230469 457.929688 5.097656 454.753906 6.03125 C 449.714844 7.523438 445.609375 6.589844 441.3125 8.082031 C 436.835938 9.949219 430.671875 13.125 425.820312 10.882812 C 424.699219 10.324219 424.328125 9.015625 423.207031 9.015625 C 421.339844 9.390625 418.351562 10.695312 415.925781 10.511719 C 412.9375 10.511719 410.699219 8.828125 407.710938 8.644531 C 399.5 9.015625 391.65625 9.015625 384.9375 13.496094 C 381.953125 15.058594 378.808594 16.171875 375.507812 16.839844 C 372.207031 17.507812 368.878906 17.699219 365.523438 17.417969 C 361.976562 16.671875 358.054688 13.496094 354.136719 14.429688 C 350.214844 14.992188 346.855469 19.097656 343.121094 21.523438 C 335.28125 26.5625 332.851562 22.832031 327.8125 23.949219 C 325.011719 24.511719 322.398438 26.75 319.597656 27.683594 C 314.933594 29.363281 310.636719 25.445312 305.410156 26.003906 C 300.558594 26.5625 295.332031 30.484375 289.730469 31.792969 C 283.757812 33.285156 278.15625 30.671875 272.371094 30.859375 C 265.460938 30.859375 258.742188 34.03125 251.835938 34.589844 C 249.40625 34.964844 246.609375 33.472656 244.179688 32.726562 C 240.261719 31.976562 238.207031 34.03125 233.539062 34.777344 C 227.941406 35.710938 221.40625 33.660156 216.738281 36.457031 C 211.324219 39.257812 206.84375 44.859375 197.699219 38.886719 C 195.832031 37.765625 194.152344 38.511719 190.417969 38.511719 C 187.679688 38.386719 185.003906 38.386719 182.390625 38.511719 C 178.65625 38.886719 176.414062 43.925781 171.75 43.738281 C 166.894531 44.300781 163.347656 39.632812 160.363281 38.699219 C 156.816406 37.207031 149.160156 43.367188 143 43.367188 C 140.011719 43.367188 142.441406 40.003906 139.265625 39.070312 C 134.972656 37.765625 122.09375 40.003906 117.796875 40.9375 C 113.503906 41.871094 109.023438 43.367188 105.851562 42.804688 C 103.238281 42.246094 101.183594 39.820312 98.570312 39.445312 C 91.476562 38.511719 85.503906 44.300781 78.96875 45.980469 C 76.851562 46.226562 75.050781 46.042969 73.554688 45.417969 C 71.5 44.300781 67.394531 45.046875 64.035156 45.980469 C 56.753906 47.472656 48.539062 46.726562 42.191406 50.832031 C 38.820312 53.253906 35.210938 55.246094 31.367188 56.804688 C 25.390625 59.234375 18.671875 63.339844 12.511719 64.648438 C 9.523438 64.648438 11.203125 60.539062 8.777344 62.035156 C 3.738281 64.832031 -4.476562 72.488281 -6.34375 74.167969 C -8.957031 76.035156 -11.382812 74.167969 -13.0625 77.527344 C -14.742188 80.886719 -15.492188 84.996094 -17.917969 87.421875 C -21.464844 90.410156 -25.945312 92.089844 -29.117188 96.195312 C -64.027344 135.957031 -48.347656 149.214844 -53.761719 161.347656 C -56.558594 167.882812 -63.839844 165.453125 -61.972656 179.640625 C -58.800781 203.351562 -50.773438 225.566406 -47.972656 230.230469 C -44.613281 236.207031 -36.957031 239.003906 -33.785156 245.167969 C -32.292969 247.964844 -32.851562 250.765625 -31.359375 252.820312 C -30.613281 253.378906 -28.746094 250.578125 -27.625 250.765625 C -25.945312 251.511719 -25.386719 256.367188 -24.265625 258.792969 C -23.519531 261.59375 -19.597656 259.539062 -18.476562 261.96875 C -17.542969 263.648438 -17.359375 268.128906 -15.117188 270.742188 C -7.089844 280.820312 49.847656 294.824219 70.941406 302.289062 C 79.15625 305.089844 79.34375 300.421875 86.621094 301.171875 C 112.945312 305.464844 114.8125 305.089844 117.425781 307.144531 C 119.042969 308.636719 120.597656 310.128906 122.09375 311.625 C 123.585938 312.929688 126.386719 313.304688 127.320312 312.558594 C 128.8125 311.625 127.320312 309.011719 129.1875 308.449219 C 132.171875 308.265625 134.972656 309.945312 138.148438 309.945312 C 141.507812 310.316406 145.054688 308.636719 149.535156 308.824219 C 151.402344 309.011719 154.761719 308.824219 155.507812 310.878906 C 154.949219 313.304688 144.121094 311.996094 141.695312 313.863281 C 137.773438 315.730469 138.148438 317.785156 140.199219 318.71875 C 142.625 320.023438 147.480469 318.71875 151.402344 318.71875 C 156.066406 318.34375 162.226562 320.773438 165.960938 317.039062 C 167.828125 314.796875 168.761719 311.0625 169.507812 311.25 C 170.441406 312.183594 170.253906 314.238281 170.628906 315.730469 C 170.816406 317.972656 173.242188 320.210938 175.296875 320.023438 C 178.46875 319.277344 177.347656 314.796875 179.589844 312.929688 C 181.644531 310.878906 186.683594 309.382812 188.550781 311.625 C 189.671875 313.675781 186.683594 316.851562 190.042969 317.785156 C 213.058594 319.929688 235.957031 319.058594 258.742188 315.171875 C 257.621094 314.796875 254.632812 314.425781 255.566406 312.558594 C 258.367188 308.636719 262.847656 303.222656 268.449219 302.664062 C 275.355469 301.917969 282.636719 300.421875 289.542969 300.421875 C 294.398438 301.171875 286.929688 304.71875 285.996094 305.835938 C 285.0625 306.957031 291.785156 303.597656 294.023438 303.410156 C 299.4375 303.785156 288.609375 311.8125 305.410156 311.8125 C 311.757812 311.625 318.664062 311.8125 323.894531 308.078125 C 326.878906 305.835938 327.8125 301.542969 330.238281 299.117188 C 331.921875 297.25 333.601562 296.691406 334.535156 298.929688 C 336.027344 305.652344 334.160156 309.382812 343.496094 308.824219 C 352.828125 308.265625 362.910156 308.449219 372.242188 305.835938 C 376.535156 304.71875 381.015625 301.542969 385.496094 302.851562 L 386.242188 303.035156 C 390.351562 303.785156 393.152344 296.503906 398.003906 297.996094 C 400.246094 298.558594 402.113281 301.355469 402.859375 303.410156 C 405.472656 309.945312 407.339844 308.824219 422.644531 306.582031 C 428.992188 305.652344 430.300781 296.316406 438.140625 300.984375 C 439.261719 301.917969 439.449219 302.289062 440.195312 303.410156 C 442.621094 311.0625 446.914062 308.824219 453.261719 308.078125 C 459.050781 307.515625 462.222656 311.4375 467.824219 311.4375 C 474.171875 311.0625 481.078125 309.570312 487.796875 309.945312 C 495.636719 309.945312 502.359375 312.371094 509.453125 312.558594 C 516.917969 312.746094 524.011719 310.503906 531.855469 310.128906 C 579.269531 310.128906 587.109375 307.144531 633.035156 305.089844 C 643.675781 304.53125 644.234375 300.609375 650.394531 297.996094 C 657.863281 295.941406 649.460938 302.105469 659.355469 301.355469 C 665.890625 300.421875 673.542969 297.996094 679.144531 294.449219 C 681.136719 292.332031 683.5 290.652344 686.238281 289.410156 C 689.410156 288.289062 693.707031 289.222656 696.132812 288.664062 C 699.492188 288.289062 701.171875 285.300781 703.972656 283.4375 L 707.144531 282.128906 C 713.492188 280.261719 718.71875 276.714844 724.695312 273.914062 C 731.789062 269.996094 737.015625 262.527344 743.546875 257.859375 L 743.921875 257.488281 C 744.855469 256.367188 743.734375 257.300781 747.84375 252.445312 C 784.617188 211.191406 782.9375 137.078125 758.484375 89.101562 Z M 296.265625 36.457031 C 288.796875 38.699219 281.207031 40.003906 273.488281 40.378906 C 272.183594 40.378906 270.503906 40.753906 269.570312 40.003906 C 268.261719 38.886719 269.941406 34.964844 271.996094 34.21875 C 278.15625 31.792969 286.929688 36.644531 294.398438 34.964844 C 298.132812 34.21875 298.503906 35.339844 296.078125 36.273438 Z M 457.742188 12.191406 C 455.875 12.4375 454.007812 12.4375 452.140625 12.191406 C 452.703125 10.882812 456.25 9.015625 458.488281 10.324219 L 458.675781 10.324219 C 459.171875 11.566406 458.800781 12.128906 457.554688 12.003906 Z M 585.429688 18.164062 C 584.871094 18.164062 583.5625 18.164062 583.191406 17.605469 L 583.5625 16.855469 C 585.304688 15.363281 587.234375 13.996094 589.351562 12.75 C 591.589844 11.441406 595.511719 9.949219 597.75 12.003906 C 596.820312 14.992188 592.898438 15.921875 591.589844 17.605469 C 589.539062 19.46875 588.792969 18.539062 585.429688 18.164062 M 614.179688 22.085938 C 608.019531 22.269531 601.484375 20.777344 595.136719 19.65625 C 593.085938 18.910156 597.003906 17.976562 597.75 17.605469 C 599.617188 16.855469 602.046875 15.550781 603.914062 16.671875 C 607.273438 18.910156 616.046875 19.84375 614.367188 21.898438 Z M 755.121094 82.195312 C 754.5 83.191406 753.691406 83.5 752.695312 83.128906 L 742.054688 75.847656 C 741.496094 75.101562 743.363281 74.542969 745.414062 74.726562 C 748.214844 75.101562 756.054688 78.460938 754.9375 82.195312 Z M 755.121094 82.195312 " fill-opacity="1" fill-rule="nonzero"/></svg>